<?xml version="1.0" encoding="utf-8"?>
<svg version="1.1" xmlns:xlink="http://www.w3.org/1999/xlink" width="300px" height="258px" xmlns="http://www.w3.org/2000/svg">
  <g transform="matrix(1 0 0 1 -1098 -114 )">
    <path d="M 1098 114  L 1398 114  L 1398 372  L 1098 372  L 1098 114  " fill-rule="nonzero" fill="#cccccc" stroke="none" />
    <path d="M 1116 132  L 1380 132  L 1380 354  L 1116 354  L 1116 132  " fill-rule="nonzero" fill="#ffffff" stroke="none" />
    <path d="M 1273.35 191.4  C 1262.514 191.4  1254 182.886  1254 172.05  C 1254 161.214  1262.514 152.7  1273.35 152.7  C 1284.186 152.7  1292.7 161.214  1292.7 172.05  C 1292.7 182.886  1284.186 191.4  1273.35 191.4  " fill-rule="nonzero" fill="#cccccc" stroke="none" />
    <path d="M 1123 348  L 1123 233.05  L 1185.75 180.8  L 1273.6 240.156  L 1323.8 212.15  L 1374 240.156  L 1374 348  L 1123 348  " fill-rule="nonzero" fill="#169bd5" stroke="none" />
  </g>
</svg>