<?xml version="1.0" encoding="utf-8"?>
<svg version="1.1" xmlns:xlink="http://www.w3.org/1999/xlink" width="122px" height="147px" xmlns="http://www.w3.org/2000/svg">
  <g transform="matrix(1 0 0 1 -1187 -195 )">
    <path d="M 101.666666666667 42  C 101.666666666667 50.0390625  99.5750868055556 57.4765625  95.3919270833333 64.3125  C 97.8806423611111 65.078125  100.250217013889 66.1171875  102.500651041667 67.4296875  C 104.751085069444 68.7421875  107.107421875 70.73828125  109.569661458333 73.41796875  C 112.031901041667 76.09765625  114.13671875 79.255859375  115.884114583333 82.892578125  C 117.631510416667 86.529296875  119.087673611111 91.232421875  120.252604166667 97.001953125  C 121.417534722222 102.771484375  122 109.23828125  122 116.40234375  C 122 124.82421875  119.352430555556 132.029296875  114.057291666667 138.017578125  C 108.762152777778 144.005859375  102.381510416667 147  94.9153645833333 147  L 27.0846354166667 147  C 19.6184895833333 147  13.2378472222222 144.005859375  7.94270833333333 138.017578125  C 2.64756944444444 132.029296875  0 124.82421875  0 116.40234375  C 0 109.23828125  0.582465277777778 102.771484375  1.74739583333333 97.001953125  C 2.91232638888889 91.232421875  4.36848958333333 86.529296875  6.11588541666667 82.892578125  C 7.86328125 79.255859375  9.96809895833333 76.09765625  12.4303385416667 73.41796875  C 14.892578125 70.73828125  17.2489149305556 68.7421875  19.4993489583333 67.4296875  C 21.7497829861111 66.1171875  24.1193576388889 65.078125  26.6080729166667 64.3125  C 22.4249131944445 57.4765625  20.3333333333333 50.0390625  20.3333333333333 42  C 20.3333333333333 36.3125  21.4055989583333 30.884765625  23.5501302083333 25.716796875  C 25.6946614583333 20.548828125  28.59375 16.078125  32.2473958333333 12.3046875  C 35.9010416666667 8.53125  40.2298177083333 5.537109375  45.2337239583333 3.322265625  C 50.2376302083333 1.10742187499999  55.4930555555556 0  61 0  C 66.5069444444445 0  71.7623697916667 1.10742187499999  76.7662760416667 3.322265625  C 81.7701822916667 5.537109375  86.0989583333333 8.53125  89.7526041666667 12.3046875  C 93.40625 16.078125  96.3053385416667 20.548828125  98.4498697916667 25.716796875  C 100.594401041667 30.884765625  101.666666666667 36.3125  101.666666666667 42  Z M 82.564453125 19.728515625  C 76.607421875 13.576171875  69.4192708333333 10.5  61 10.5  C 52.5807291666667 10.5  45.392578125 13.576171875  39.435546875 19.728515625  C 33.478515625 25.880859375  30.5 33.3046875  30.5 42  C 30.5 50.6953125  33.478515625 58.119140625  39.435546875 64.271484375  C 45.392578125 70.423828125  52.5807291666667 73.5  61 73.5  C 69.4192708333333 73.5  76.607421875 70.423828125  82.564453125 64.271484375  C 88.521484375 58.119140625  91.5 50.6953125  91.5 42  C 91.5 33.3046875  88.521484375 25.880859375  82.564453125 19.728515625  Z M 27.0846354166667 136  L 94.9153645833333 136  C 99.5750868055556 136.5  103.559678819444 134.544921875  106.869140625 130.634765625  C 110.178602430556 126.724609375  111.833333333333 121.98046875  111.833333333333 116.40234375  C 111.833333333333 103.33203125  109.754991319444 93.0234375  105.598307291667 85.4765625  C 101.441623263889 77.9296875  95.4713541666667 73.96484375  87.6875 73.58203125  C 80.0095486111111 80.52734375  71.1137152777778 84  61 84  C 50.8862847222222 84  41.9904513888889 80.52734375  34.3125 73.58203125  C 26.5286458333333 73.96484375  20.5583767361111 77.9296875  16.4016927083333 85.4765625  C 12.2450086805556 93.0234375  10.1666666666667 103.33203125  10.1666666666667 116.40234375  C 10.1666666666667 121.98046875  11.8213975694444 126.724609375  15.130859375 130.634765625  C 18.4403211805556 134.544921875  22.4249131944445 136.5  27.0846354166667 136  Z " fill-rule="nonzero" fill="#0000bf" stroke="none" transform="matrix(1 0 0 1 1187 195 )" />
  </g>
</svg>