<?xml version="1.0" encoding="utf-8"?>
<svg version="1.1" xmlns:xlink="http://www.w3.org/1999/xlink" width="50px" height="39px" xmlns="http://www.w3.org/2000/svg">
  <g transform="matrix(1 0 0 1 -42 -427 )">
    <path d="M 27.6227678571429 4.98225691980128  C 25.1488095238095 4.02271114265436  22.4888392857143 3.54293825408091  19.6428571428571 3.54293825408091  C 16.796875 3.54293825408091  14.1369047619048 4.02271114265436  11.6629464285714 4.98225691980128  C 9.1889880952381 5.94180269694819  7.22191220238095 7.24272533711852  5.76171875 8.88502484031228  C 4.30152529761905 10.527324343506  3.57142857142857 12.2895670688431  3.57142857142857 14.1717530163236  C 3.57142857142857 15.6848828956707  4.06436011904762 17.1426543647977  5.05022321428571 18.5450674237048  C 6.03608630952381 19.9474804826118  7.421875 21.1653655074521  9.20758928571429 22.1987224982257  L 11.9140625 23.7487579843861  L 10.9375 26.0738112136267  C 11.5699404761905 25.7047551454933  12.1465773809524 25.3449254790632  12.6674107142857 24.9943222143364  L 13.8950892857143 24.1362668559262  L 15.3738839285714 24.4130589070263  C 16.8247767857143 24.6713981547197  18.2477678571429 24.8005677785664  19.6428571428571 24.8005677785664  C 22.4888392857143 24.8005677785664  25.1488095238095 24.3207948899929  27.6227678571429 23.361249112846  C 30.0967261904762 22.4017033356991  32.0638020833333 21.1007806955287  33.5239955357143 19.458481192335  C 34.9841889880952 17.8161816891412  35.7142857142857 16.0539389638041  35.7142857142857 14.1717530163236  C 35.7142857142857 12.2895670688431  34.9841889880952 10.527324343506  33.5239955357143 8.88502484031228  C 32.0638020833333 7.24272533711852  30.0967261904762 5.94180269694819  27.6227678571429 4.98225691980128  Z M 9.77957589285714 1.89602555003549  C 12.8022693452381 0.632008516678494  16.0900297619048 0  19.6428571428571 0  C 23.1956845238095 0  26.4834449404762 0.632008516678494  29.5061383928571 1.89602555003549  C 32.5288318452381 3.16004258339247  34.9144345238095 4.88076650106458  36.6629464285714 7.05819730305181  C 38.4114583333333 9.23562810503903  39.2857142857143 11.6068133427963  39.2857142857143 14.1717530163236  C 39.2857142857143 16.736692689851  38.4114583333333 19.1078779276082  36.6629464285714 21.2853087295955  C 34.9144345238095 23.4627395315827  32.5288318452381 25.1834634492548  29.5061383928571 26.4474804826118  C 26.4834449404762 27.7114975159688  23.1956845238095 28.3435060326473  19.6428571428571 28.3435060326473  C 18.0431547619048 28.3435060326473  16.40625 28.1958836053939  14.7321428571429 27.9006387508872  C 12.4255952380952 29.5244854506742  9.84002976190476 30.7054648687012  6.97544642857143 31.4435770049681  C 6.30580357142857 31.6096522356281  5.50595238095238 31.7572746628815  4.57589285714286 31.8864442867282  L 4.4921875 31.8864442867282  C 4.28757440476191 31.8864442867282  4.09691220238095 31.8126330731015  3.92020089285714 31.6650106458481  C 3.74348958333333 31.5173882185948  3.63653273809524 31.3236337828247  3.59933035714286 31.083747338538  C 3.58072916666667 31.028388928318  3.57142857142857 30.9684173172463  3.57142857142857 30.9038325053229  C 3.57142857142857 30.8392476933996  3.57607886904762 30.7792760823279  3.58537946428571 30.7239176721079  C 3.59468005952381 30.6685592618879  3.61328125 30.6132008516679  3.64118303571429 30.5578424414478  L 3.7109375 30.4194464158978  C 3.7109375 30.4194464158978  3.74348958333333 30.3687012065295  3.80859375 30.2672107877928  C 3.87369791666667 30.1657203690561  3.91090029761905 30.1195883605394  3.92020089285714 30.1288147622427  C 3.92950148809524 30.1380411639461  3.97135416666667 30.0919091554294  4.04575892857143 29.9904187366927  C 4.12016369047619 29.888928317956  4.15736607142857 29.847409510291  4.15736607142857 29.8658623136977  C 4.25037202380952 29.7551454932576  4.46428571428571 29.5244854506742  4.79910714285714 29.1738821859475  C 5.13392857142857 28.8232789212207  5.37574404761905 28.5511000709723  5.52455357142857 28.3573456352023  C 5.67336309523809 28.1635911994322  5.88262648809524 27.8960255500355  6.15234375 27.5546486870121  C 6.42206101190476 27.2132718239886  6.65457589285714 26.8580553584102  6.84988839285714 26.4889992902768  C 7.04520089285714 26.1199432221434  7.2358630952381 25.7139815471966  7.421875 25.2711142654365  C 5.11532738095238 23.9425124201561  3.30171130952381 22.3094393186657  1.98102678571429 20.3718949609652  C 0.660342261904762 18.4343506032647  0 16.3676366217175  0 14.1717530163236  C 0 11.6068133427963  0.874255952380952 9.23562810503903  2.62276785714286 7.05819730305181  C 4.37127976190476 4.88076650106458  6.75688244047619 3.16004258339247  9.77957589285714 1.89602555003549  Z M 48.0189732142857 27.471611071682  C 46.6982886904762 29.3999290276792  44.8846726190476 31.028388928318  42.578125 32.3569907735983  C 42.7641369047619 32.7998580553584  42.9547991071429 33.2058197303052  43.1501116071429 33.5748757984386  C 43.3454241071429 33.943931866572  43.5779389880952 34.2991483321505  43.84765625 34.6405251951739  C 44.1173735119048 34.9819020581973  44.3266369047619 35.249467707594  44.4754464285714 35.4432221433641  C 44.624255952381 35.6369765791341  44.8660714285714 35.9091554293825  45.2008928571429 36.2597586941093  C 45.5357142857143 36.6103619588361  45.7496279761905 36.8410220014194  45.8426339285714 36.9517388218595  C 45.8612351190476 36.9701916252662  45.8984375 37.0117104329312  45.9542410714286 37.0762952448545  C 46.0100446428572 37.1408800567779  46.0518973214286 37.1870120652945  46.0797991071429 37.2146912704045  C 46.1077008928572 37.2423704755145  46.1449032738095 37.2885024840312  46.19140625 37.3530872959546  C 46.2379092261905 37.4176721078779  46.2704613095238 37.4684173172463  46.2890625 37.5053229240596  L 46.3588169642857 37.6437189496096  C 46.3588169642857 37.6437189496096  46.3774181547619 37.6990773598297  46.4146205357143 37.8097941802697  C 46.4518229166667 37.9205110007097  46.4564732142857 37.9804826117814  46.4285714285714 37.9897090134847  C 46.4006696428571 37.9989354151881  46.3913690476191 38.0589070262598  46.4006696428571 38.1696238466998  C 46.3448660714286 38.4279630943932  46.2239583333333 38.6309439318666  46.0379464285714 38.7785663591199  C 45.8519345238095 38.9261887863733  45.6473214285714 38.9907735982967  45.4241071428571 38.97232079489  C 44.4940476190476 38.8431511710433  43.6941964285714 38.6955287437899  43.0245535714286 38.5294535131299  C 40.1599702380952 37.791341376863  37.5744047619048 36.6103619588361  35.2678571428571 34.986515259049  C 33.59375 35.2817601135557  31.9568452380952 35.4293825408091  30.3571428571429 35.4293825408091  C 25.3162202380952 35.4293825408091  20.9263392857143 34.2114975159688  17.1875 31.7757274662881  C 18.2663690476191 31.8495386799148  19.0848214285714 31.8864442867282  19.6428571428571 31.8864442867282  C 22.6376488095238 31.8864442867282  25.5115327380952 31.4712562100781  28.2645089285714 30.6408800567779  C 31.0174851190476 29.8105039034776  33.4728422619048 28.6202980837473  35.6305803571429 27.0702625975869  C 37.9557291666667 25.3726046841732  39.741443452381 23.416607523066  40.9877232142857 21.2022711142654  C 42.2340029761905 18.9879347054649  42.8571428571429 16.6444286728176  42.8571428571429 14.1717530163236  C 42.8571428571429 12.7508871540099  42.6432291666667 11.3484740951029  42.2154017857143 9.96451383960255  C 44.6149553571429 11.2746628814762  46.5122767857143 12.91696238467  47.9073660714286 14.8914123491838  C 49.3024553571429 16.8658623136977  50 18.9879347054649  50 21.2576295244855  C 50 23.471965933286  49.3396577380952 25.5432931156849  48.0189732142857 27.471611071682  Z " fill-rule="nonzero" fill="#555555" stroke="none" transform="matrix(1 0 0 1 42 427 )" />
  </g>
</svg>