<?xml version="1.0" encoding="utf-8"?>
<svg version="1.1" xmlns:xlink="http://www.w3.org/1999/xlink" width="78px" height="74px" xmlns="http://www.w3.org/2000/svg">
  <g transform="matrix(1 0 0 1 -22 -15 )">
    <path d="M 23.8526785714286 2.93191964285714  C 28.6696428571429 0.977306547619047  33.71875 0  39 0  C 44.28125 0  49.3303571428572 0.977306547619047  54.1473214285714 2.93191964285714  C 58.9642857142857 4.88653273809524  63.1138392857143 7.515625  66.5959821428572 10.8191964285714  C 70.078125 14.1227678571429  72.8493303571429 18.0595238095238  74.9095982142857 22.6294642857143  C 76.9698660714286 27.1994047619048  78 31.9895833333333  78 37  C 78 41.9828869047619  76.9771205357143 46.7593005952381  74.9313616071428 51.3292410714286  C 72.8856026785714 55.8991815476191  70.1216517857143 59.8359375  66.6395089285714 63.1395089285714  C 63.1573660714286 66.4430803571429  59.0078125 69.0790550595238  54.1908482142857 71.0474330357143  C 49.3738839285714 73.0158110119048  44.3102678571429 74  39 74  C 33.6897321428571 74  28.6261160714286 73.0226934523809  23.8091517857143 71.0680803571429  C 18.9921875 69.1134672619048  14.8498883928571 66.4774925595238  11.3822544642857 63.16015625  C 7.91462053571429 59.8428199404762  5.15066964285714 55.9060639880952  3.09040178571429 51.3498883928571  C 1.03013392857143 46.793712797619  0 42.0104166666667  0 37  C 0 31.9895833333333  1.03013392857143 27.1994047619048  3.09040178571429 22.6294642857143  C 5.15066964285714 18.0595238095238  7.921875 14.1227678571429  11.4040178571429 10.8191964285714  C 14.8861607142857 7.515625  19.0357142857143 4.88653273809524  23.8526785714286 2.93191964285714  Z M 52.6238839285714 42.2857142857143  C 59.5881696428571 42.2857142857143  64.0279017857143 46.7868303571429  65.9430803571428 55.7890625  C 70.2667410714286 50.1454613095238  72.4285714285714 43.8824404761905  72.4285714285714 37  C 72.4285714285714 32.7053571428571  71.5435267857143 28.6034226190476  69.7734375 24.6941964285714  C 68.0033482142857 20.7849702380952  65.6238839285714 17.4125744047619  62.6350446428571 14.5770089285714  C 59.6462053571429 11.741443452381  56.0915178571429 9.48400297619047  51.9709821428571 7.8046875  C 47.8504464285714 6.12537202380952  43.5267857142857 5.28571428571428  39 5.28571428571428  C 34.4732142857143 5.28571428571428  30.1495535714286 6.12537202380952  26.0290178571429 7.8046875  C 21.9084821428571 9.48400297619047  18.3537946428571 11.741443452381  15.3649553571429 14.5770089285714  C 12.3761160714286 17.4125744047619  9.99665178571429 20.7849702380952  8.2265625 24.6941964285714  C 6.45647321428572 28.6034226190476  5.57142857142857 32.7053571428571  5.57142857142857 37  C 5.57142857142857 43.8824404761905  7.73325892857143 50.1454613095238  12.0569196428571 55.7890625  C 13.9720982142857 46.7868303571429  18.4118303571429 42.2857142857143  25.3761160714286 42.2857142857143  C 29.1774553571429 45.8095238095238  33.71875 47.5714285714286  39 47.5714285714286  C 44.28125 47.5714285714286  48.8225446428571 45.8095238095238  52.6238839285714 42.2857142857143  Z M 50.8175223214286 40.2829241071429  C 54.08203125 37.1858258928571  55.7142857142857 33.4486607142857  55.7142857142857 29.0714285714286  C 55.7142857142857 24.6941964285714  54.08203125 20.95703125  50.8175223214286 17.8599330357143  C 47.5530133928571 14.7628348214286  43.6138392857143 13.2142857142857  39 13.2142857142857  C 34.3861607142857 13.2142857142857  30.4469866071429 14.7628348214286  27.1824776785714 17.8599330357143  C 23.91796875 20.95703125  22.2857142857143 24.6941964285714  22.2857142857143 29.0714285714286  C 22.2857142857143 33.4486607142857  23.91796875 37.1858258928571  27.1824776785714 40.2829241071429  C 30.4469866071429 43.3800223214286  34.3861607142857 44.9285714285714  39 44.9285714285714  C 43.6138392857143 44.9285714285714  47.5530133928571 43.3800223214286  50.8175223214286 40.2829241071429  Z " fill-rule="nonzero" fill="#000000" stroke="none" transform="matrix(1 0 0 1 22 15 )" />
  </g>
</svg>