<?xml version="1.0" encoding="utf-8"?>
<svg version="1.1" xmlns:xlink="http://www.w3.org/1999/xlink" width="36px" height="30px" xmlns="http://www.w3.org/2000/svg">
  <g transform="matrix(1 0 0 1 -50 -304 )">
    <path d="M 18.75 17.36328125  L 27.71875 13.828125  L 28 20  C 28.0416666666667 20.8984375  27.6145833333333 21.7317708333333  26.71875 22.5  C 25.8229166666667 23.2682291666667  24.5989583333333 23.876953125  23.046875 24.326171875  C 21.4947916666667 24.775390625  19.8125 25  18 25  C 16.1875 25  14.5052083333333 24.775390625  12.953125 24.326171875  C 11.4010416666667 23.876953125  10.1770833333333 23.2682291666667  9.28125 22.5  C 8.38541666666667 21.7317708333333  7.95833333333333 20.8984375  8 20  L 8.28125 13.828125  L 17.25 17.36328125  C 17.4791666666667 17.4544270833333  17.7291666666667 17.5  18 17.5  C 18.2708333333333 17.5  18.5208333333333 17.4544270833333  18.75 17.36328125  Z M 35.65625 6.89453125  C 35.8854166666667 6.99869791666666  36 7.20052083333333  36 7.5  C 36 7.79947916666667  35.8854166666667 8.00130208333333  35.65625 8.10546875  L 18.15625 14.98046875  C 18.1145833333333 14.9934895833333  18.0625 15  18 15  C 17.9375 15  17.8854166666667 14.9934895833333  17.84375 14.98046875  L 7.65625 10.95703125  C 7.20833333333333 11.3997395833333  6.83854166666667 12.1256510416667  6.546875 13.134765625  C 6.25520833333333 14.1438802083333  6.078125 15.3059895833333  6.015625 16.62109375  C 6.671875 17.08984375  7 17.7994791666667  7 18.75  C 7 19.6484375  6.69791666666667 20.3450520833333  6.09375 20.83984375  L 7 29.296875  C 7.02083333333333 29.4791666666667  6.97916666666667 29.6419270833333  6.875 29.78515625  C 6.78125 29.9283854166667  6.65625 30  6.5 30  L 3.5 30  C 3.34375 30  3.21875 29.9283854166667  3.125 29.78515625  C 3.02083333333333 29.6419270833333  2.97916666666667 29.4791666666667  3 29.296875  L 3.90625 20.83984375  C 3.30208333333333 20.3450520833333  3 19.6484375  3 18.75  C 3 17.7994791666667  3.33854166666667 17.0768229166667  4.015625 16.58203125  C 4.13020833333333 13.88671875  4.640625 11.73828125  5.546875 10.13671875  L 0.34375 8.10546875  C 0.114583333333333 8.00130208333333  0 7.79947916666667  0 7.5  C 0 7.20052083333333  0.114583333333333 6.99869791666666  0.34375 6.89453125  L 17.84375 0.0195312499999989  C 17.8854166666667 0.00651041666666519  17.9375 0  18 0  C 18.0625 0  18.1145833333333 0.00651041666666519  18.15625 0.0195312499999989  L 35.65625 6.89453125  Z " fill-rule="nonzero" fill="#aaaaaa" stroke="none" transform="matrix(1 0 0 1 50 304 )" />
  </g>
</svg>