<?xml version="1.0" encoding="utf-8"?>
<svg version="1.1" xmlns:xlink="http://www.w3.org/1999/xlink" width="87px" height="32px" xmlns="http://www.w3.org/2000/svg">
  <g transform="matrix(1 0 0 1 -1119 -864 )">
    <path d="M 1119.5 868  A 3.5 3.5 0 0 1 1123 864.5 L 1202 864.5  A 3.5 3.5 0 0 1 1205.5 868 L 1205.5 892  A 3.5 3.5 0 0 1 1202 895.5 L 1123 895.5  A 3.5 3.5 0 0 1 1119.5 892 L 1119.5 868  Z " fill-rule="nonzero" fill="#0099ff" stroke="none" fill-opacity="0.0980392156862745" />
    <path d="M 1119.5 868  A 3.5 3.5 0 0 1 1123 864.5 L 1202 864.5  A 3.5 3.5 0 0 1 1205.5 868 L 1205.5 892  A 3.5 3.5 0 0 1 1202 895.5 L 1123 895.5  A 3.5 3.5 0 0 1 1119.5 892 L 1119.5 868  Z " stroke-width="1" stroke="#a7d2f9" fill="none" />
  </g>
</svg>