<?xml version="1.0" encoding="utf-8"?>
<svg version="1.1" xmlns:xlink="http://www.w3.org/1999/xlink" width="90px" height="32px" xmlns="http://www.w3.org/2000/svg">
  <g transform="matrix(1 0 0 1 -1113 -726 )">
    <path d="M 1114 730  A 3 3 0 0 1 1117 727 L 1199 727  A 3 3 0 0 1 1202 730 L 1202 754  A 3 3 0 0 1 1199 757 L 1117 757  A 3 3 0 0 1 1114 754 L 1114 730  Z " fill-rule="nonzero" fill="#ffffff" stroke="none" />
    <path d="M 1113.5 730  A 3.5 3.5 0 0 1 1117 726.5 L 1199 726.5  A 3.5 3.5 0 0 1 1202.5 730 L 1202.5 754  A 3.5 3.5 0 0 1 1199 757.5 L 1117 757.5  A 3.5 3.5 0 0 1 1113.5 754 L 1113.5 730  Z " stroke-width="1" stroke="#67c23a" fill="none" stroke-opacity="0.2" />
  </g>
</svg>