<?xml version="1.0" encoding="utf-8"?>
<svg version="1.1" xmlns:xlink="http://www.w3.org/1999/xlink" width="90px" height="32px" xmlns="http://www.w3.org/2000/svg">
  <g transform="matrix(1 0 0 1 -1113 -726 )">
    <path d="M 1113.5 730  A 3.5 3.5 0 0 1 1117 726.5 L 1199 726.5  A 3.5 3.5 0 0 1 1202.5 730 L 1202.5 754  A 3.5 3.5 0 0 1 1199 757.5 L 1117 757.5  A 3.5 3.5 0 0 1 1113.5 754 L 1113.5 730  Z " fill-rule="nonzero" fill="#0099ff" stroke="none" fill-opacity="0.0980392156862745" />
    <path d="M 1113.5 730  A 3.5 3.5 0 0 1 1117 726.5 L 1199 726.5  A 3.5 3.5 0 0 1 1202.5 730 L 1202.5 754  A 3.5 3.5 0 0 1 1199 757.5 L 1117 757.5  A 3.5 3.5 0 0 1 1113.5 754 L 1113.5 730  Z " stroke-width="1" stroke="#a7d2f9" fill="none" />
  </g>
</svg>