<?xml version="1.0" encoding="utf-8"?>
<svg version="1.1" xmlns:xlink="http://www.w3.org/1999/xlink" width="87px" height="95px" xmlns="http://www.w3.org/2000/svg">
  <g transform="matrix(1 0 0 1 -254 -173 )">
    <path d="M 72.5 27.1428571428571  C 72.5 32.3381696428571  71.0084635416667 37.1447172619048  68.025390625 41.5625  C 69.8001302083333 42.0572916666667  71.4899088541667 42.7287946428571  73.0947265625 43.5770089285714  C 74.6995442708333 44.4252232142857  76.3798828125 45.7152157738095  78.1357421875 47.4469866071429  C 79.8916015625 49.1787574404762  81.392578125 51.2197730654762  82.638671875 53.5700334821429  C 83.884765625 55.9202938988095  84.9231770833333 58.959728422619  85.75390625 62.6883370535714  C 86.5846354166667 66.4169456845238  87 70.5961681547619  87 75.2260044642857  C 87 80.6687127976191  85.1119791666667 85.3250558035714  81.3359375 89.1950334821429  C 77.5598958333333 93.0650111607143  73.009765625 95  67.685546875 95  L 19.314453125 95  C 13.990234375 95  9.44010416666667 93.0650111607143  5.6640625 89.1950334821429  C 1.88802083333333 85.3250558035714  0 80.6687127976191  0 75.2260044642857  C 0 70.5961681547619  0.415364583333333 66.4169456845238  1.24609375 62.6883370535714  C 2.07682291666667 58.959728422619  3.115234375 55.9202938988095  4.361328125 53.5700334821429  C 5.607421875 51.2197730654762  7.1083984375 49.1787574404762  8.8642578125 47.4469866071429  C 10.6201171875 45.7152157738095  12.3004557291667 44.4252232142857  13.9052734375 43.5770089285714  C 15.5100911458333 42.7287946428571  17.1998697916667 42.0572916666667  18.974609375 41.5625  C 15.9915364583333 37.1447172619048  14.5 32.3381696428571  14.5 27.1428571428571  C 14.5 23.4672619047619  15.2646484375 19.9595424107143  16.7939453125 16.6196986607143  C 18.3232421875 13.2798549107143  20.390625 10.390625  22.99609375 7.95200892857142  C 25.6015625 5.51339285714286  28.6884765625 3.57840401785714  32.2568359375 2.14704241071428  C 35.8251953125 0.715680803571424  39.5729166666667 0  43.5 0  C 47.4270833333333 0  51.1748046875 0.715680803571424  54.7431640625 2.14704241071428  C 58.3115234375 3.57840401785714  61.3984375 5.51339285714286  64.00390625 7.95200892857142  C 66.609375 10.390625  68.6767578125 13.2798549107143  70.2060546875 16.6196986607143  C 71.7353515625 19.9595424107143  72.5 23.4672619047619  72.5 27.1428571428571  Z M 58.8779296875 12.7497209821429  C 54.6298828125 8.77371651785714  49.50390625 6.78571428571428  43.5 6.78571428571428  C 37.49609375 6.78571428571428  32.3701171875 8.77371651785714  28.1220703125 12.7497209821429  C 23.8740234375 16.7257254464286  21.75 21.5234375  21.75 27.1428571428571  C 21.75 32.7622767857143  23.8740234375 37.5599888392857  28.1220703125 41.5359933035714  C 32.3701171875 45.5119977678571  37.49609375 47.5  43.5 47.5  C 49.50390625 47.5  54.6298828125 45.5119977678571  58.8779296875 41.5359933035714  C 63.1259765625 37.5599888392857  65.25 32.7622767857143  65.25 27.1428571428571  C 65.25 21.5234375  63.1259765625 16.7257254464286  58.8779296875 12.7497209821429  Z M 19.314453125 88  L 67.685546875 88  C 71.0084635416667 88.2142857142857  73.8499348958333 86.9507998511905  76.2099609375 84.423828125  C 78.5699869791667 81.8968563988095  79.75 78.8309151785714  79.75 75.2260044642857  C 79.75 66.7792038690476  78.2679036458333 60.1171875  75.3037109375 55.2399553571429  C 72.3395182291667 50.3627232142857  68.08203125 47.8004092261905  62.53125 47.5530133928571  C 57.0559895833333 52.0414806547619  50.7122395833333 54.2857142857143  43.5 54.2857142857143  C 36.2877604166667 54.2857142857143  29.9440104166667 52.0414806547619  24.46875 47.5530133928571  C 18.91796875 47.8004092261905  14.6604817708333 50.3627232142857  11.6962890625 55.2399553571429  C 8.73209635416667 60.1171875  7.25 66.7792038690476  7.25 75.2260044642857  C 7.25 78.8309151785714  8.43001302083333 81.8968563988095  10.7900390625 84.423828125  C 13.1500651041667 86.9507998511905  15.9915364583333 88.2142857142857  19.314453125 88  Z " fill-rule="nonzero" fill="#0000bf" stroke="none" transform="matrix(1 0 0 1 254 173 )" />
  </g>
</svg>