<?xml version="1.0" encoding="utf-8"?>
<svg version="1.1" xmlns:xlink="http://www.w3.org/1999/xlink" width="114px" height="108px" xmlns="http://www.w3.org/2000/svg">
  <g transform="matrix(1 0 0 1 -262 -305 )">
    <path d="M 95 30.8571428571429  C 95 36.7633928571429  93.0455729166667 42.2276785714286  89.13671875 47.25  C 91.4622395833333 47.8125  93.6764322916667 48.5758928571429  95.779296875 49.5401785714286  C 97.8821614583333 50.5044642857143  100.083984375 51.9709821428571  102.384765625 53.9397321428571  C 104.685546875 55.9084821428571  106.65234375 58.2287946428571  108.28515625 60.9006696428571  C 109.91796875 63.5725446428571  111.278645833333 67.0279017857143  112.3671875 71.2667410714286  C 113.455729166667 75.5055803571429  114 80.2566964285714  114 85.5200892857143  C 114 91.7075892857143  111.526041666667 97.0011160714286  106.578125 101.400669642857  C 101.630208333333 105.800223214286  95.66796875 108  88.69140625 108  L 25.30859375 108  C 18.33203125 108  12.3697916666667 105.800223214286  7.421875 101.400669642857  C 2.47395833333333 97.0011160714286  0 91.7075892857143  0 85.5200892857143  C 0 80.2566964285714  0.544270833333333 75.5055803571429  1.6328125 71.2667410714286  C 2.72135416666667 67.0279017857143  4.08203125 63.5725446428571  5.71484375 60.9006696428571  C 7.34765625 58.2287946428571  9.314453125 55.9084821428571  11.615234375 53.9397321428571  C 13.916015625 51.9709821428571  16.1178385416667 50.5044642857143  18.220703125 49.5401785714286  C 20.3235677083333 48.5758928571429  22.5377604166667 47.8125  24.86328125 47.25  C 20.9544270833333 42.2276785714286  19 36.7633928571429  19 30.8571428571429  C 19 26.6785714285714  20.001953125 22.6908482142857  22.005859375 18.8939732142857  C 24.009765625 15.0970982142857  26.71875 11.8125  30.1328125 9.04017857142857  C 33.546875 6.26785714285714  37.591796875 4.06808035714286  42.267578125 2.44084821428571  C 46.943359375 0.813616071428566  51.8541666666667 0  57 0  C 62.1458333333333 0  67.056640625 0.813616071428566  71.732421875 2.44084821428571  C 76.408203125 4.06808035714286  80.453125 6.26785714285714  83.8671875 9.04017857142857  C 87.28125 11.8125  89.990234375 15.0970982142857  91.994140625 18.8939732142857  C 93.998046875 22.6908482142857  95 26.6785714285714  95 30.8571428571429  Z M 77.150390625 14.4944196428571  C 71.583984375 9.97433035714286  64.8671875 7.71428571428571  57 7.71428571428571  C 49.1328125 7.71428571428571  42.416015625 9.97433035714286  36.849609375 14.4944196428571  C 31.283203125 19.0145089285714  28.5 24.46875  28.5 30.8571428571429  C 28.5 37.2455357142857  31.283203125 42.6997767857143  36.849609375 47.2198660714286  C 42.416015625 51.7399553571429  49.1328125 54  57 54  C 64.8671875 54  71.583984375 51.7399553571429  77.150390625 47.2198660714286  C 82.716796875 42.6997767857143  85.5 37.2455357142857  85.5 30.8571428571429  C 85.5 24.46875  82.716796875 19.0145089285714  77.150390625 14.4944196428571  Z M 25.30859375 100  L 88.69140625 100  C 93.0455729166667 100.285714285714  96.7688802083333 98.8493303571429  99.861328125 95.9765625  C 102.953776041667 93.1037946428571  104.5 89.6183035714286  104.5 85.5200892857143  C 104.5 75.9174107142857  102.557942708333 68.34375  98.673828125 62.7991071428571  C 94.7897135416667 57.2544642857143  89.2109375 54.3415178571429  81.9375 54.0602678571429  C 74.7630208333333 59.1629464285714  66.4505208333333 61.7142857142857  57 61.7142857142857  C 47.5494791666667 61.7142857142857  39.2369791666667 59.1629464285714  32.0625 54.0602678571429  C 24.7890625 54.3415178571429  19.2102864583333 57.2544642857143  15.326171875 62.7991071428571  C 11.4420572916667 68.34375  9.5 75.9174107142857  9.5 85.5200892857143  C 9.5 89.6183035714286  11.0462239583333 93.1037946428571  14.138671875 95.9765625  C 17.2311197916667 98.8493303571429  20.9544270833333 100.285714285714  25.30859375 100  Z " fill-rule="nonzero" fill="#0000bf" stroke="none" transform="matrix(1 0 0 1 262 305 )" />
  </g>
</svg>