<?xml version="1.0" encoding="utf-8"?>
<svg version="1.1" xmlns:xlink="http://www.w3.org/1999/xlink" width="131px" height="152px" xmlns="http://www.w3.org/2000/svg">
  <g transform="matrix(1 0 0 1 -585 -337 )">
    <path d="M 109.166666666667 43.4285714285714  C 109.166666666667 51.7410714285714  106.920789930556 59.4315476190476  102.429036458333 66.5  C 105.101345486111 67.2916666666667  107.645724826389 68.3660714285714  110.062174479167 69.7232142857143  C 112.478624131944 71.0803571428572  115.0087890625 73.1443452380952  117.652669270833 75.9151785714286  C 120.296549479167 78.6860119047619  122.556640625 81.9516369047619  124.432942708333 85.7120535714286  C 126.309244791667 89.4724702380952  127.872829861111 94.3355654761905  129.123697916667 100.301339285714  C 130.374565972222 106.267113095238  131 112.953869047619  131 120.361607142857  C 131 129.06994047619  128.157118055556 136.520089285714  122.471354166667 142.712053571429  C 116.785590277778 148.904017857143  109.934244791667 152  101.917317708333 152  L 29.0826822916667 152  C 21.0657552083333 152  14.2144097222222 148.904017857143  8.52864583333333 142.712053571429  C 2.84288194444444 136.520089285714  0 129.06994047619  0 120.361607142857  C 0 112.953869047619  0.625434027777778 106.267113095238  1.87630208333333 100.301339285714  C 3.12717013888889 94.3355654761905  4.69075520833333 89.4724702380952  6.56705729166667 85.7120535714286  C 8.443359375 81.9516369047619  10.7034505208333 78.6860119047619  13.3473307291667 75.9151785714286  C 15.9912109375 73.1443452380952  18.5213758680556 71.0803571428572  20.9378255208333 69.7232142857143  C 23.3542751736111 68.3660714285714  25.8986545138889 67.2916666666667  28.5709635416667 66.5  C 24.0792100694445 59.4315476190476  21.8333333333333 51.7410714285714  21.8333333333333 43.4285714285714  C 21.8333333333333 37.547619047619  22.9847005208333 31.9352678571429  25.2874348958333 26.5915178571429  C 27.5901692708333 21.2477678571429  30.703125 16.625  34.6263020833333 12.7232142857143  C 38.5494791666667 8.82142857142857  43.1975911458333 5.72544642857143  48.5706380208333 3.43526785714285  C 53.9436848958333 1.14508928571428  59.5868055555556 0  65.5 0  C 71.4131944444445 0  77.0563151041667 1.14508928571428  82.4293619791667 3.43526785714285  C 87.8024088541667 5.72544642857143  92.4505208333333 8.82142857142857  96.3736979166667 12.7232142857143  C 100.296875 16.625  103.409830729167 21.2477678571429  105.712565104167 26.5915178571429  C 108.015299479167 31.9352678571429  109.166666666667 37.547619047619  109.166666666667 43.4285714285714  Z M 88.6552734375 20.3995535714286  C 82.2587890625 14.0379464285714  74.5403645833333 10.8571428571429  65.5 10.8571428571429  C 56.4596354166667 10.8571428571429  48.7412109375 14.0379464285714  42.3447265625 20.3995535714286  C 35.9482421875 26.7611607142857  32.75 34.4375  32.75 43.4285714285714  C 32.75 52.4196428571429  35.9482421875 60.0959821428571  42.3447265625 66.4575892857143  C 48.7412109375 72.8191964285714  56.4596354166667 76  65.5 76  C 74.5403645833333 76  82.2587890625 72.8191964285714  88.6552734375 66.4575892857143  C 95.0517578125 60.0959821428571  98.25 52.4196428571429  98.25 43.4285714285714  C 98.25 34.4375  95.0517578125 26.7611607142857  88.6552734375 20.3995535714286  Z M 29.0826822916667 141  L 101.917317708333 141  C 106.920789930556 141.142857142857  111.199327256944 139.121279761905  114.7529296875 135.078125  C 118.306532118056 131.034970238095  120.083333333333 126.129464285714  120.083333333333 120.361607142857  C 120.083333333333 106.846726190476  117.851671006944 96.1875  113.388346354167 88.3839285714286  C 108.925021701389 80.5803571428572  102.514322916667 76.4806547619048  94.15625 76.0848214285714  C 85.9118923611111 83.2663690476191  76.3598090277778 86.8571428571428  65.5 86.8571428571428  C 54.6401909722222 86.8571428571428  45.0881076388889 83.2663690476191  36.84375 76.0848214285714  C 28.4856770833333 76.4806547619048  22.0749782986111 80.5803571428572  17.6116536458333 88.3839285714286  C 13.1483289930556 96.1875  10.9166666666667 106.846726190476  10.9166666666667 120.361607142857  C 10.9166666666667 126.129464285714  12.6934678819444 131.034970238095  16.2470703125 135.078125  C 19.8006727430556 139.121279761905  24.0792100694445 141.142857142857  29.0826822916667 141  Z " fill-rule="nonzero" fill="#0000bf" stroke="none" transform="matrix(1 0 0 1 585 337 )" />
  </g>
</svg>