<?xml version="1.0" encoding="utf-8"?>
<svg version="1.1" xmlns:xlink="http://www.w3.org/1999/xlink" width="100px" height="101px" xmlns="http://www.w3.org/2000/svg">
  <g transform="matrix(1 0 0 1 -169 -780 )">
    <path d="M 169 780  L 269 780  L 269 881  L 169 881  L 169 780  " fill-rule="nonzero" fill="#cccccc" stroke="none" />
    <path d="M 176 787  L 262 787  L 262 874  L 176 874  L 176 787  " fill-rule="nonzero" fill="#ffffff" stroke="none" />
    <path d="M 228.5 810.15  C 224.3 810.15  221 806.85  221 802.65  C 221 798.45  224.3 795.15  228.5 795.15  C 232.7 795.15  236 798.45  236 802.65  C 236 806.85  232.7 810.15  228.5 810.15  " fill-rule="nonzero" fill="#cccccc" stroke="none" />
    <path d="M 179 872  L 179 826.9  L 199.25 806.4  L 227.6 822.8  L 243.8 818.7  L 260 822.8  L 260 872  L 179 872  " fill-rule="nonzero" fill="#169bd5" stroke="none" />
  </g>
</svg>