<?xml version="1.0" encoding="utf-8"?>
<svg version="1.1" xmlns:xlink="http://www.w3.org/1999/xlink" width="62px" height="50px" xmlns="http://www.w3.org/2000/svg">
  <g transform="matrix(1 0 0 1 -207 -147 )">
    <path d="M 43.3169642857143 43.9871651785714  C 47.1227678571429 42.3595610119048  50.2481398809524 40.1506696428571  52.6930803571429 37.3604910714286  C 52.1856398809524 34.477306547619  51.1765252976191 32.0824032738095  49.6657366071429 30.17578125  C 48.1549479166667 28.2691592261905  46.0271577380952 27.1670386904762  43.2823660714286 26.8694196428571  C 41.7369791666667 28.2459077380952  39.8975074404762 29.3201264880952  37.7639508928571 30.0920758928571  C 35.6303943452381 30.864025297619  33.3757440476191 31.25  31 31.25  C 28.624255952381 31.25  26.3696056547619 30.864025297619  24.2360491071429 30.0920758928571  C 22.1024925595238 29.3201264880952  20.2630208333333 28.2459077380952  18.7176339285714 26.8694196428571  C 15.9728422619048 27.1670386904762  13.8450520833333 28.2691592261905  12.3342633928571 30.17578125  C 10.823474702381 32.0824032738095  9.81436011904762 34.477306547619  9.30691964285714 37.3604910714286  C 11.7518601190476 40.1506696428571  14.8772321428571 42.3595610119048  18.6830357142857 43.9871651785714  C 22.4888392857143 45.6147693452381  26.5944940476191 46.4285714285714  31 46.4285714285714  C 35.405505952381 46.4285714285714  39.5111607142857 45.6147693452381  43.3169642857143 43.9871651785714  Z M 40.3934151785714 25.4324776785714  C 42.98828125 23.33984375  44.2857142857143 20.8147321428571  44.2857142857143 17.8571428571429  C 44.2857142857143 14.8995535714286  42.98828125 12.3744419642857  40.3934151785714 10.2818080357143  C 37.7985491071429 8.18917410714285  34.6674107142857 7.14285714285715  31 7.14285714285715  C 27.3325892857143 7.14285714285715  24.2014508928571 8.18917410714285  21.6065848214286 10.2818080357143  C 19.01171875 12.3744419642857  17.7142857142857 14.8995535714286  17.7142857142857 17.8571428571429  C 17.7142857142857 20.8147321428571  19.01171875 23.33984375  21.6065848214286 25.4324776785714  C 24.2014508928571 27.5251116071429  27.3325892857143 28.5714285714286  31 28.5714285714286  C 34.6674107142857 28.5714285714286  37.7985491071429 27.5251116071429  40.3934151785714 25.4324776785714  Z M 59.5435267857143 15.2901785714286  C 61.1811755952381 18.3779761904762  62 21.6145833333333  62 25  C 62 28.3854166666667  61.1811755952381 31.6173735119048  59.5435267857143 34.6958705357143  C 57.9058779761905 37.7743675595238  55.7088913690476 40.434337797619  52.9525669642857 42.67578125  C 50.1962425595238 44.9172247023809  46.9036458333333 46.6982886904762  43.0747767857143 48.0189732142857  C 39.2459077380952 49.3396577380952  35.2209821428571 50  31 50  C 26.8020833333333 50  22.7886904761905 49.3396577380952  18.9598214285714 48.0189732142857  C 15.1309523809524 46.6982886904762  11.8325892857143 44.921875  9.06473214285714 42.6897321428571  C 6.296875 40.4575892857143  4.09412202380952 37.797619047619  2.45647321428571 34.7098214285714  C 0.818824404761905 31.6220238095238  0 28.3854166666667  0 25  C 0 21.6145833333333  0.818824404761905 18.3779761904762  2.45647321428571 15.2901785714286  C 4.09412202380952 12.2023809523809  6.296875 9.54241071428572  9.06473214285714 7.31026785714286  C 11.8325892857143 5.078125  15.1309523809524 3.30171130952381  18.9598214285714 1.98102678571428  C 22.7886904761905 0.660342261904762  26.8020833333333 0  31 0  C 35.1979166666667 0  39.2113095238095 0.660342261904762  43.0401785714286 1.98102678571428  C 46.8690476190476 3.30171130952381  50.1674107142857 5.078125  52.9352678571429 7.31026785714286  C 55.703125 9.54241071428572  57.9058779761905 12.2023809523809  59.5435267857143 15.2901785714286  Z " fill-rule="nonzero" fill="#8080ff" stroke="none" transform="matrix(1 0 0 1 207 147 )" />
  </g>
</svg>